<svg width="479" height="658" viewBox="0 0 479 658" fill="none" xmlns="http://www.w3.org/2000/svg">
<path opacity="0.6" fill-rule="evenodd" clip-rule="evenodd" d="M85.1868 73.8132C137.516 21.4976 218.204 14.2529 293.242 6.0968C366.549 -1.87112 441.976 -4.97333 510.311 27.6054C580.555 61.0944 653.236 113.344 674.217 187.727C694.5 259.631 634.174 321.844 612.896 391.286C596.095 446.113 596.931 506.058 562.779 551.406C525.109 601.426 476.56 651.96 412.841 656.929C349.895 661.837 301.469 600.153 241.418 576.465C169.424 548.065 74.2951 566.842 27.0912 504.761C-20.152 442.628 7.31909 356.724 17.4117 281.858C27.4834 207.147 32.8555 126.131 85.1868 73.8132Z" fill="#ABC9FF"/>
</svg>
