<svg width="644" height="620" viewBox="0 0 644 620" fill="none" xmlns="http://www.w3.org/2000/svg">
<path opacity="0.6" fill-rule="evenodd" clip-rule="evenodd" d="M316.433 1.11304e-06C383.959 0.00850623 440.702 47.3315 494.386 90.427C546.832 132.528 597.506 179.13 620.579 244.153C644.297 310.993 657.481 391.492 623.022 452.939C589.711 512.34 510.637 513.556 452.097 544.59C405.876 569.092 367.734 608.256 316.433 615.47C259.848 623.428 195.91 624.707 151.587 586.851C107.801 549.455 116.356 478.506 92.8917 424.549C64.7606 359.86 -8.74185 310.664 0.858362 240.246C10.4666 169.77 83.6266 132.119 138.45 90.3822C193.159 48.732 248.904 -0.0085044 316.433 1.11304e-06Z" fill="#ABC9FF"/>
</svg>
